<svg id="SAGITTAIRE" xmlns="http://www.w3.org/2000/svg" viewBox="0 0 1080 1350"><defs><style>.cls-1{fill:#002ccb;}.cls-2{fill:#fe2e24;}.cls-3{font-size:99.74px;font-family:CenturyGothicPro-Bold, Century Gothic Pro;font-weight:700;letter-spacing:0.1em;}.cls-3,.cls-6{fill:#fff;}.cls-4{letter-spacing:0.05em;}.cls-5{letter-spacing:0.03em;}.cls-6{font-size:35.92px;font-family:AGaramondPro-Regular, Adobe Garamond Pro;letter-spacing:0.1em;}.cls-7{letter-spacing:0.09em;}.cls-8{letter-spacing:0.08em;}.cls-9{letter-spacing:0.09em;}.cls-10{letter-spacing:0.09em;}.cls-11{letter-spacing:0.1em;}</style></defs><rect class="cls-1" width="1080" height="1350"/><path class="cls-2" d="M615.88,495.79,418.09,693.59a16.27,16.27,0,0,1-23,0h0a16.27,16.27,0,0,1,0-23L592.88,472.8Z"/><rect class="cls-2" x="446.14" y="536.8" width="32.52" height="175.4" rx="16.26" transform="translate(-306.15 509.88) rotate(-45)"/><polygon class="cls-2" points="689.67 398.28 505 466.22 599.64 488.07 621.73 582.95 689.67 398.28"/><text class="cls-3" transform="translate(229.55 886.77)">S<tspan class="cls-4" x="61.84" y="0">A</tspan><tspan x="141.13" y="0">GIT</tspan><tspan class="cls-5" x="324.66" y="0">T</tspan><tspan x="369.55" y="0">AIRE</tspan></text><text class="cls-6" transform="translate(235.17 945.01)">(<tspan class="cls-7" x="15.09" y="0">D</tspan><tspan x="46.27" y="0">u 23 n</tspan><tspan class="cls-8" x="158.97" y="0">o</tspan><tspan class="cls-9" x="179.44" y="0">v</tspan><tspan x="198.34" y="0">emb</tspan><tspan class="cls-10" x="269.58" y="0">r</tspan><tspan class="cls-11" x="284.74" y="0">e au 21 décemb</tspan><tspan class="cls-10" x="552.37" y="0">r</tspan><tspan class="cls-11" x="567.53" y="0">e)</tspan></text></svg>