<svg xmlns="http://www.w3.org/2000/svg" viewBox="0 0 1080 1350"><defs><style>.cls-1{fill:#ffe3d5;}.cls-2,.cls-3,.cls-5{fill:#fe2e24;}.cls-3{font-size:99.74px;font-family:CenturyGothicPro-Bold, Century Gothic Pro;font-weight:700;letter-spacing:0.1em;}.cls-4{letter-spacing:0.08em;}.cls-5{font-size:35.92px;font-family:AGaramondPro-Regular, Adobe Garamond Pro;letter-spacing:0.1em;}.cls-6{letter-spacing:0.09em;}</style></defs><g id="GÉMEAUX"><rect class="cls-1" y="1" width="1080" height="1351.5"/><path class="cls-2" d="M449.2,637.35V428.09a16.88,16.88,0,0,1,33.75,0V637.35a16.88,16.88,0,0,1-33.75,0Z"/><path class="cls-2" d="M596.2,637.35V428.09a16.88,16.88,0,0,1,33.75,0V637.35a16.88,16.88,0,0,1-33.75,0Z"/><path class="cls-2" d="M363.85,397.7a16.89,16.89,0,0,1,23.38-15.57c104.41,43.59,210.28,43.59,314.68,0a16.88,16.88,0,0,1,13,31.15c-56.43,23.55-113.74,35.5-170.34,35.5s-113.91-11.95-170.34-35.5A16.9,16.9,0,0,1,363.85,397.7Z"/><path class="cls-2" d="M353.85,682.74a16.88,16.88,0,0,1,10.38-15.58c56.43-23.56,113.74-35.5,170.34-35.5s113.91,11.94,170.34,35.5a16.88,16.88,0,0,1-13,31.15c-104.4-43.59-210.27-43.59-314.68,0a16.9,16.9,0,0,1-23.38-15.57Z"/><text class="cls-3" transform="translate(264.96 884.77)">GÉME<tspan class="cls-4" x="317.18" y="0">A</tspan><tspan x="398.47" y="0">UX</tspan></text><text class="cls-5" transform="translate(337.37 943.01)">(<tspan class="cls-6" x="15.09" y="0">D</tspan><tspan x="46.27" y="0">u 22 mai au 21 juin)</tspan></text></g></svg>