<svg xmlns="http://www.w3.org/2000/svg" viewBox="0 0 1080 1350"><defs><style>.cls-1{fill:#ffe3d5;}.cls-2{font-size:99.74px;font-family:CenturyGothicPro-Bold, Century Gothic Pro;font-weight:700;letter-spacing:0.1em;}.cls-2,.cls-3,.cls-5{fill:#002ccb;}.cls-3{font-size:35.92px;font-family:AGaramondPro-Regular, Adobe Garamond Pro;letter-spacing:0.1em;}.cls-4{letter-spacing:0.09em;}</style></defs><g id="POISSONS"><rect class="cls-1" x="0.2" width="1079.6" height="1350"/><text class="cls-2" transform="translate(290.65 886.27)">POISSON</text><text class="cls-3" transform="translate(307.09 944.51)">(<tspan class="cls-4" x="15.09" y="0">D</tspan><tspan x="46.27" y="0">u 20 février au 20 mars)</tspan></text><path class="cls-5" d="M644.54,538.78H435.29a16.88,16.88,0,1,1,0-33.75H644.54a16.88,16.88,0,1,1,0,33.75Z"/><path class="cls-5" d="M448.9,702.44a16.89,16.89,0,0,1-15.57-23.39c43.59-104.4,43.59-210.27,0-314.67a16.87,16.87,0,0,1,31.14-13C488,407.81,500,465.12,500,521.72s-12,113.91-35.51,170.34A16.88,16.88,0,0,1,448.9,702.44Z"/><path class="cls-5" d="M630.94,702.44a16.88,16.88,0,0,1-15.58-10.38c-23.56-56.43-35.5-113.74-35.5-170.34s11.94-113.91,35.5-170.34a16.87,16.87,0,1,1,31.14,13c-43.58,104.4-43.58,210.27,0,314.67a16.89,16.89,0,0,1-15.56,23.39Z"/></g></svg>