<svg xmlns="http://www.w3.org/2000/svg" viewBox="0 0 1080 1350"><defs><style>.cls-1{fill:#aeded2;}.cls-2{font-size:99.74px;font-family:CenturyGothicPro-Bold, Century Gothic Pro;font-weight:700;letter-spacing:0.1em;}.cls-2,.cls-3,.cls-7{fill:#006869;}.cls-3{font-size:35.92px;font-family:AGaramondPro-Regular, Adobe Garamond Pro;letter-spacing:0.1em;}.cls-4{letter-spacing:0.09em;}.cls-5{letter-spacing:0.09em;}.cls-6{letter-spacing:0.1em;}</style></defs><g id="BALANCE"><rect class="cls-1" x="0.03" width="1079.6" height="1350"/><text class="cls-2" transform="translate(278.68 886.27)">BALANCE</text><text class="cls-3" transform="translate(252.3 944.51)">(<tspan class="cls-4" x="15.09" y="0">D</tspan><tspan x="46.27" y="0">u 24 septemb</tspan><tspan class="cls-5" x="277.19" y="0">r</tspan><tspan class="cls-6" x="292.35" y="0">e au 22 octob</tspan><tspan class="cls-5" x="527.33" y="0">r</tspan><tspan class="cls-6" x="542.49" y="0">e)</tspan></text><path class="cls-7" d="M741.3,655.66H339a15.56,15.56,0,0,1,0-31.11H741.3a15.56,15.56,0,0,1,0,31.11Z"/><path class="cls-7" d="M628.43,550.83a15.55,15.55,0,0,1,0-31.1L741,519.51h0a15.56,15.56,0,0,1,0,31.11l-112.61.21Z"/><path class="cls-7" d="M446.48,551.18H339a15.56,15.56,0,0,1,0-31.11H446.48a15.56,15.56,0,0,1,0,31.11Z"/><path class="cls-7" d="M455.13,550.62a15.51,15.51,0,0,1-11.94-5.57,126.75,126.75,0,1,1,195.58-1.35,15.55,15.55,0,1,1-24.12-19.63,95.64,95.64,0,1,0-147.61,1,15.55,15.55,0,0,1-11.91,25.53Z"/></g></svg>