<svg xmlns="http://www.w3.org/2000/svg" viewBox="0 0 1080 1350"><defs><style>.cls-1{fill:#1f1f1f;}.cls-2,.cls-3{opacity:0.95;}.cls-2{font-size:99.74px;font-family:CenturyGothicPro-Bold, Century Gothic Pro;font-weight:700;letter-spacing:0.1em;}.cls-2,.cls-3,.cls-9{fill:#fff;}.cls-3{font-size:35.92px;font-family:AGaramondPro-Regular, Adobe Garamond Pro;letter-spacing:0.1em;}.cls-4{letter-spacing:0.09em;}.cls-5{letter-spacing:0.09em;}.cls-6{letter-spacing:0.08em;}.cls-7{letter-spacing:0.09em;}.cls-8{letter-spacing:0.09em;}</style></defs><g id="SCORPION"><rect class="cls-1" x="0.07" width="1080" height="1350"/><text class="cls-2" transform="translate(243.84 885.77)">SCORPION</text><text class="cls-3" transform="translate(256.18 944)">(<tspan class="cls-4" x="15.09" y="0">D</tspan><tspan x="46.27" y="0">u 23 octob</tspan><tspan class="cls-5" x="232.75" y="0">r</tspan><tspan x="247.91" y="0">e au 22 n</tspan><tspan class="cls-6" x="409.11" y="0">o</tspan><tspan class="cls-7" x="429.58" y="0">v</tspan><tspan x="448.48" y="0">emb</tspan><tspan class="cls-8" x="519.72" y="0">r</tspan><tspan x="534.88" y="0">e)</tspan></text><path class="cls-9" d="M494.11,680.25a13.4,13.4,0,0,1-13.4-13.4V400.1c0-22.32-20.65-11.84-40.49-3.71-20.65,8.47-40.48,18.16-40.48,40.49v230a13.41,13.41,0,0,1-26.81,0v-230c0-37.11,33-53,67.29-67.3,37.84-15.75,67.3-6.59,67.3,30.52V666.85A13.4,13.4,0,0,1,494.11,680.25Z"/><path class="cls-9" d="M602.1,680.25a13.4,13.4,0,0,1-13.4-13.4V400.1c0-22.32-20.65-11.84-40.49-3.71-20.66,8.47-40.48,18.16-40.48,40.49v230a13.41,13.41,0,0,1-26.82,0v-230c0-37.11,33-53,67.3-67.3,37.84-15.75,67.3-6.59,67.3,30.52V666.85A13.4,13.4,0,0,1,602.1,680.25Z"/><polygon class="cls-9" points="395.95 433.53 379.63 446.5 324.31 385.29 349.2 365.5 395.95 433.53"/><path class="cls-9" d="M713.11,680.28,602.06,684A12.86,12.86,0,0,1,589,671.32h0a12.86,12.86,0,0,1,12.64-13.07l111-3.68Z"/><polygon class="cls-9" points="755.83 665.88 669.02 627.51 694.51 666.82 670.35 707.12 755.83 665.88"/></g></svg>