<svg xmlns="http://www.w3.org/2000/svg" viewBox="0 0 1080 1350"><defs><style>.cls-1{fill:#006869;}.cls-2{font-size:99.74px;font-family:CenturyGothicPro-Bold, Century Gothic Pro;font-weight:700;letter-spacing:0.03em;}.cls-2,.cls-6,.cls-8,.cls-9{fill:#fff;}.cls-3{letter-spacing:0.08em;}.cls-4{letter-spacing:0.1em;}.cls-5{letter-spacing:0.08em;}.cls-6{font-size:35.92px;font-family:AGaramondPro-Regular, Adobe Garamond Pro;letter-spacing:0.1em;}.cls-7{letter-spacing:0.09em;}.cls-9{stroke:#fff;stroke-miterlimit:10;}</style></defs><g id="TAUREAU"><rect class="cls-1" x="-0.01" width="1080" height="1351.5"/><text class="cls-2" transform="translate(297.62 883.77)">T<tspan class="cls-3" x="44.89" y="0">A</tspan><tspan class="cls-4" x="126.18" y="0">URE</tspan><tspan class="cls-5" x="329.65" y="0">A</tspan><tspan class="cls-4" x="410.94" y="0">U</tspan></text><text class="cls-6" transform="translate(333.32 942.01)">(<tspan class="cls-7" x="15.09" y="0">D</tspan><tspan x="46.27" y="0">u 21 avril au 21 mai)</tspan></text><path class="cls-8" d="M540,698.5a133.27,133.27,0,1,1,94.23-39A132.38,132.38,0,0,1,540,698.5ZM540,460A105.27,105.27,0,1,0,645.26,565.23,105.4,105.4,0,0,0,540,460Z"/><polygon class="cls-9" points="672.62 374.01 672.62 347.69 720.49 341 720.62 380.8 672.62 374.01"/><path class="cls-8" d="M578.3,466.67v-28c19.05,0,31.6-3.59,37.28-10.66,5-6.22,6-16.16,7-26.69,1.17-11.71,2.49-25,10.11-35.79,8.93-12.69,23.9-18.86,45.75-18.86v28c-18,0-21.65,5.26-22.86,7-3.38,4.81-4.24,13.38-5.14,22.46-1.35,13.48-2.88,28.75-13.08,41.45C626,459.76,606.65,466.67,578.3,466.67Z"/><polygon class="cls-9" points="407.37 374.01 407.37 347.69 359.49 341 359.36 380.8 407.37 374.01"/><path class="cls-8" d="M501.68,466.67v-28c-19.05,0-31.6-3.59-37.28-10.66-5-6.22-6-16.16-7-26.69-1.17-11.71-2.5-25-10.11-35.79-8.94-12.69-23.9-18.86-45.76-18.86v28c17.95,0,21.65,5.26,22.86,7,3.38,4.81,4.24,13.38,5.15,22.46,1.34,13.48,2.87,28.75,13.08,41.45C454,459.76,473.33,466.67,501.68,466.67Z"/></g></svg>