<svg xmlns="http://www.w3.org/2000/svg" viewBox="0 0 1080 1350"><defs><style>.cls-1{fill:#ffe1bb;}.cls-2{font-size:99.74px;font-family:CenturyGothicPro-Bold, Century Gothic Pro;font-weight:700;letter-spacing:0.1em;}.cls-2,.cls-3,.cls-6{fill:#fe2e24;}.cls-3{font-size:35.92px;font-family:AGaramondPro-Regular, Adobe Garamond Pro;letter-spacing:0.1em;}.cls-4{letter-spacing:0.09em;}.cls-5{letter-spacing:0.09em;}</style></defs><g id="CAPRICORNE"><rect class="cls-1" x="0.13" width="1080" height="1350"/><text class="cls-2" transform="translate(171.09 883.77)">CAPRICORNE</text><text class="cls-3" transform="translate(263.68 942.01)">(<tspan class="cls-4" x="15.09" y="0">D</tspan><tspan x="46.27" y="0">u 22 décemb</tspan><tspan class="cls-5" x="265.41" y="0">r</tspan><tspan x="280.57" y="0">e au 20 janvier)</tspan></text><path class="cls-6" d="M583.65,673.81a17.13,17.13,0,0,1-17.13-17.13V476.8a51.74,51.74,0,0,0-103.48,0V656.68a17.13,17.13,0,1,1-34.26,0V476.8a86,86,0,1,1,172,0V656.68A17.13,17.13,0,0,1,583.65,673.81Z"/><polygon class="cls-6" points="476.02 432.93 457.18 451.76 378.07 382.07 406.8 353.34 476.02 432.93"/><path class="cls-6" d="M634.36,730c-17.2,0-33.57-5.12-46.08-14.42-13.83-10.28-21.76-25-21.76-40.4s7.93-30.12,21.76-40.4c12.51-9.3,28.88-14.42,46.08-14.42s33.56,5.12,46.07,14.42c13.83,10.28,21.77,25,21.77,40.4s-7.94,30.12-21.77,40.4C667.92,724.88,651.56,730,634.36,730Zm0-75.38c-19.79,0-33.58,10.84-33.58,20.56s13.79,20.56,33.58,20.56,33.57-10.84,33.57-20.56S654.14,654.62,634.36,654.62Z"/><polygon class="cls-6" points="592.25 644.38 603.45 668.55 510.77 718.83 493.7 681.96 592.25 644.38"/></g></svg>