<svg xmlns="http://www.w3.org/2000/svg" viewBox="0 0 1080 1350"><defs><style>.cls-1{fill:#aeded2;}.cls-2{font-size:99.74px;font-family:CenturyGothicPro-Bold, Century Gothic Pro;font-weight:700;letter-spacing:0.1em;}.cls-2,.cls-4,.cls-6{fill:#002ccb;}.cls-3{letter-spacing:0.08em;}.cls-4{font-size:35.92px;font-family:AGaramondPro-Regular, Adobe Garamond Pro;letter-spacing:0.1em;}.cls-5{letter-spacing:0.09em;}</style></defs><g id="VERSEAU"><rect class="cls-1" y="-0.5" width="1080" height="1350"/><text class="cls-2" transform="translate(295.88 886.27)">VERSE<tspan class="cls-3" x="333.14" y="0">A</tspan><tspan x="414.43" y="0">U</tspan></text><text class="cls-4" transform="translate(288.17 944.51)">(<tspan class="cls-5" x="15.09" y="0">D</tspan><tspan x="46.27" y="0">u 21 janvier au 19 février)</tspan></text><polygon class="cls-6" points="447.18 425.38 471.75 444.98 400.48 546.95 363 517.06 447.18 425.38"/><polygon class="cls-6" points="471.98 445.25 447.2 425.2 459.73 550.31 501.48 543.19 471.98 445.25"/><polygon class="cls-6" points="548.65 421.84 573.22 441.44 501.95 543.41 464.47 513.52 548.65 421.84"/><polygon class="cls-6" points="573.45 441.71 548.67 421.66 561.2 546.77 611.21 543.19 573.45 441.71"/><polygon class="cls-6" points="657.2 421.84 681.77 441.44 610.5 543.41 573.03 513.52 657.2 421.84"/><polygon class="cls-6" points="682 441.71 657.23 421.66 669.76 546.77 717 538.67 682 441.71"/><polygon class="cls-6" points="447.18 576.41 471.75 596.01 400.48 697.98 363 668.09 447.18 576.41"/><polygon class="cls-6" points="471.98 596.28 447.2 576.23 459.73 701.34 501.48 694.22 471.98 596.28"/><polygon class="cls-6" points="548.65 572.87 573.22 592.47 501.95 694.43 464.47 664.55 548.65 572.87"/><polygon class="cls-6" points="573.45 592.74 548.67 572.69 561.2 697.8 611.21 694.22 573.45 592.74"/><polygon class="cls-6" points="657.2 572.87 681.77 592.47 610.5 694.43 573.03 664.55 657.2 572.87"/><polygon class="cls-6" points="682 592.74 657.23 572.69 669.76 697.8 717 689.7 682 592.74"/></g></svg>