<svg xmlns="http://www.w3.org/2000/svg" viewBox="0 0 1080 1350"><defs><style>.cls-1{font-size:99.74px;font-family:CenturyGothicPro-Bold, Century Gothic Pro;font-weight:700;letter-spacing:0.1em;}.cls-1,.cls-2,.cls-4{fill:#002ccb;}.cls-2{font-size:35.92px;font-family:AGaramondPro-Regular, Adobe Garamond Pro;letter-spacing:0.1em;}.cls-3{letter-spacing:0.09em;}</style></defs><g id="CANCER"><text class="cls-1" transform="translate(303.61 884.27)">CANCER</text><text class="cls-2" transform="translate(316.33 942.51)">(<tspan class="cls-3" x="15.09" y="0">D</tspan><tspan x="46.27" y="0">u 22 juin au 23 juillet)</tspan></text><path class="cls-4" d="M401.76,623a103.23,103.23,0,1,1,73-30.24A102.55,102.55,0,0,1,401.76,623Zm0-185.28a82,82,0,1,0,82,82A82.13,82.13,0,0,0,401.76,437.7Z"/><path class="cls-4" d="M770.39,437.7a10.66,10.66,0,0,1-4-.8c-129.59-53.6-244-53.65-360.16-.17a10.6,10.6,0,0,1-8.87-19.26,466.14,466.14,0,0,1,93.41-31.86,417.91,417.91,0,0,1,93.55-9.94,453,453,0,0,1,94.33,11,581.9,581.9,0,0,1,95.84,30.67,10.6,10.6,0,0,1-4.06,20.39Z"/><path class="cls-4" d="M677.76,437.13a103.23,103.23,0,1,1-73,30.24A102.55,102.55,0,0,1,677.76,437.13Zm0,185.28a82,82,0,1,0-82-82A82.13,82.13,0,0,0,677.76,622.41Z"/><path class="cls-4" d="M309.13,622.41a10.66,10.66,0,0,1,4,.8c129.59,53.6,244,53.65,360.16.17a10.6,10.6,0,0,1,8.87,19.26,466.14,466.14,0,0,1-93.41,31.86,417.91,417.91,0,0,1-93.55,9.94,452.35,452.35,0,0,1-94.33-11,580.88,580.88,0,0,1-95.84-30.66,10.6,10.6,0,0,1,4.06-20.39Z"/></g></svg>