<svg xmlns="http://www.w3.org/2000/svg" viewBox="0 0 1080 1350"><defs><style>.cls-1{fill:#ffc750;}.cls-2{font-size:99.74px;font-family:CenturyGothicPro-Bold, Century Gothic Pro;font-weight:700;letter-spacing:0.1em;}.cls-2,.cls-3,.cls-5{fill:#fff;}.cls-3{font-size:35.92px;font-family:AGaramondPro-Regular, Adobe Garamond Pro;letter-spacing:0.1em;}.cls-4{letter-spacing:0.09em;}</style></defs><g id="LION"><rect class="cls-1" y="1" width="1080" height="1351.5"/><text class="cls-2" transform="translate(405.35 884.77)">LION</text><text class="cls-3" transform="translate(313.43 943.01)">(<tspan class="cls-4" x="15.09" y="0">D</tspan><tspan x="46.27" y="0">u 24 juillet au 23 août)</tspan></text><path class="cls-5" d="M665.48,715.49a59.68,59.68,0,0,1-7.9-.53c-21.76-2.89-39.75-17.41-49.35-39.83C593.3,640.26,606,589,619.53,534.79c7.68-30.88,15.62-62.81,18.53-91.93,2.76-27.65-9.31-54.58-31.5-70.27a75.91,75.91,0,0,0-44.06-14c-.59,0-1.18,0-1.77,0a73.06,73.06,0,0,0-56.59,28.91,75,75,0,0,0-13.32,63.85,574.93,574.93,0,0,0,18.76,61.11c11.45,32,17.77,49.68,8.32,104.87a17.06,17.06,0,1,1-33.63-5.75c7.94-46.38,3.62-58.46-6.82-87.64a604.76,604.76,0,0,1-19.75-64.41A108.94,108.94,0,0,1,477,366.82,107,107,0,0,1,560,324.53c.84,0,1.68,0,2.53,0a109.9,109.9,0,0,1,63.76,20.23C658.46,367.5,676,406.4,672,446.25c-3.15,31.57-11.4,64.72-19.37,96.77-11.54,46.39-23.47,94.35-13,118.68,4.82,11.25,12.81,18.16,22.49,19.44,13.75,1.83,29.78-7.41,44-25.36A17.06,17.06,0,1,1,732.82,677C713.18,701.78,689,715.48,665.48,715.49Z"/><path class="cls-5" d="M432.16,685.47a88.71,88.71,0,1,1,88.71-88.71A88.8,88.8,0,0,1,432.16,685.47Zm0-143.3a54.59,54.59,0,1,0,54.59,54.59A54.65,54.65,0,0,0,432.16,542.17Z"/></g></svg>