<svg xmlns="http://www.w3.org/2000/svg" viewBox="0 0 1080 1350"><defs><style>.cls-1{fill:#fe2e24;}.cls-2,.cls-3,.cls-4{fill:#fff;}.cls-3{font-size:99.74px;font-family:CenturyGothicPro-Bold, Century Gothic Pro;font-weight:700;letter-spacing:0.1em;}.cls-4{font-size:35.92px;font-family:AGaramondPro-Regular, Adobe Garamond Pro;letter-spacing:0.1em;}.cls-5{letter-spacing:0.09em;}</style></defs><g id="BÉLIER"><rect class="cls-1" x="0.5" y="0.5" width="1080" height="1349.5"/><polygon class="cls-2" points="529.41 616.96 550.15 617.05 554.95 698.99 523.33 698.84 529.41 616.96"/><path class="cls-2" d="M539.18,671.28a12.8,12.8,0,0,1-12.8-12.8c0-126-20.79-195.47-38.24-231.6-9.9-20.52-21.31-36.07-33.9-46.23-10-8.1-20.56-12.38-30.42-12.38-21,0-36.26,18.83-36.26,44.78a12.8,12.8,0,1,1-25.6,0c0-19.17,6.16-36.83,17.34-49.75a58.18,58.18,0,0,1,44.52-20.63c15.78,0,31.86,6.24,46.5,18.06,15.56,12.56,29.32,31.07,40.88,55,12.66,26.24,22.55,58.79,29.37,96.75,7.57,42.14,11.41,91.26,11.41,146A12.8,12.8,0,0,1,539.18,671.28Z"/><path class="cls-2" d="M539.12,671.28a12.81,12.81,0,0,1-12.8-12.8c0-54.72,3.84-103.84,11.42-146,6.82-38,16.7-70.51,29.37-96.75,11.56-23.95,25.31-42.46,40.87-55,14.65-11.82,30.73-18.06,46.51-18.06A58.18,58.18,0,0,1,699,363.3c11.18,12.92,17.34,30.58,17.34,49.75a12.81,12.81,0,0,1-25.61,0c0-25.95-15.24-44.78-36.25-44.78-9.87,0-20.39,4.28-30.43,12.38-12.59,10.16-24,25.71-33.89,46.23-17.45,36.13-38.24,105.65-38.24,231.6A12.81,12.81,0,0,1,539.12,671.28Z"/><text class="cls-3" transform="translate(363.61 884.27)">BÉLIER</text><text class="cls-4" transform="translate(323.54 942.51)">(<tspan class="cls-5" x="15.09" y="0">D</tspan><tspan x="46.27" y="0">u 21 mars au 20 avril)</tspan></text></g></svg>