<svg xmlns="http://www.w3.org/2000/svg" viewBox="0 0 1080 1350"><defs><style>.cls-1{fill:#006869;}.cls-2,.cls-3,.cls-4{fill:#aeded2;}.cls-3{font-size:99.74px;font-family:CenturyGothicPro-Bold, Century Gothic Pro;font-weight:700;letter-spacing:0.1em;}.cls-4{font-size:35.92px;font-family:AGaramondPro-Regular, Adobe Garamond Pro;letter-spacing:0.1em;}.cls-5{letter-spacing:0.09em;}.cls-6{letter-spacing:0.09em;}.cls-7{letter-spacing:0.1em;}</style></defs><g id="VIERGE"><rect class="cls-1" x="0.14" width="1080" height="1350"/><path class="cls-2" d="M511.93,658.25a13.41,13.41,0,0,1-13.41-13.4V378.1c0-22.32-20.64-11.84-40.48-3.71-20.66,8.47-40.49,18.16-40.49,40.49v230a13.41,13.41,0,0,1-26.81,0v-230c0-37.11,33-53,67.3-67.3,37.84-15.75,67.3-6.59,67.3,30.52V644.85A13.41,13.41,0,0,1,511.93,658.25Z"/><path class="cls-2" d="M619.92,658.25a13.4,13.4,0,0,1-13.41-13.4V378.1c0-22.32-20.64-11.84-40.48-3.71-20.66,8.47-40.49,18.16-40.49,40.49v230a13.41,13.41,0,0,1-26.81,0v-230c0-37.11,33-53,67.3-67.3,37.84-15.75,67.29-6.59,67.29,30.52V644.85A13.4,13.4,0,0,1,619.92,658.25Z"/><polygon class="cls-2" points="413.76 411.53 397.45 424.5 342.13 363.29 367.01 343.5 413.76 411.53"/><polygon class="cls-2" points="602.48 646.16 620.43 625.02 665.17 694.34 637.42 709.86 602.48 646.16"/><polygon class="cls-2" points="628.58 657.64 617.76 625.3 552.63 679.56 572.78 704.15 628.58 657.64"/><path class="cls-2" d="M602.49,671.61a13.36,13.36,0,0,1-9-23.2q4.47-4.1,8.79-8.22c1.7-3.55,3.56-9.32,5-18.68,2.61-17.12,2.94-39.75,3.29-63.72.85-57.91,1.72-117.8,32.23-145.45,11.92-10.81,27.12-15.51,45.18-14,22.26,1.86,39.14,14.93,46.3,35.85,8.72,25.49,2.8,61.22-16.69,100.61S665.79,616,623.69,656.64c-3.86,6.18-9.13,11.31-16.45,14.1A13.38,13.38,0,0,1,602.49,671.61Zm78.89-246.84c-8.55,0-15.2,2.39-20.69,7.36-21.91,19.86-22.76,78.74-23.45,126-.25,16.78-.48,32.94-1.5,47.48,25-28.09,44.7-56.11,57.85-82.71,16.07-32.48,21.67-61.68,15.36-80.11-3.78-11-11.38-16.88-23.25-17.88C684.2,424.84,682.76,424.77,681.38,424.77Z"/><text class="cls-3" transform="translate(338.66 885.77)">VIERGE</text><text class="cls-4" transform="translate(279.17 944)">(<tspan class="cls-5" x="15.09" y="0">D</tspan><tspan x="46.27" y="0">u 24 août au 23 septemb</tspan><tspan class="cls-6" x="473.88" y="0">r</tspan><tspan class="cls-7" x="489.04" y="0">e)</tspan></text></g></svg>